<mxfile host="app.diagrams.net" modified="2023-10-25T09:51:42.900Z" agent="Mozilla/5.0 (Windows NT 10.0; Win64; x64) AppleWebKit/537.36 (KHTML, like Gecko) Chrome/118.0.0.0 Safari/537.36" etag="i9Gy8XDQrJh9Er7YR8G_" version="22.0.6" type="device">
  <diagram id="fslR-8RcAUFX0rbG5jVe" name="Página-1">
    <mxGraphModel dx="1219" dy="612" grid="1" gridSize="10" guides="1" tooltips="1" connect="1" arrows="1" fold="1" page="1" pageScale="1" pageWidth="1169" pageHeight="1654" math="0" shadow="0">
      <root>
        <mxCell id="0" />
        <mxCell id="1" parent="0" />
        <mxCell id="DUaDIjnE9S2bqJey5qyR-1" value="a)" style="text;html=1;strokeColor=none;fillColor=none;align=center;verticalAlign=middle;whiteSpace=wrap;rounded=0;fontSize=40;" parent="1" vertex="1">
          <mxGeometry x="106" y="20" width="90" height="50" as="geometry" />
        </mxCell>
        <mxCell id="DUaDIjnE9S2bqJey5qyR-2" value="b)" style="text;html=1;strokeColor=none;fillColor=none;align=center;verticalAlign=middle;whiteSpace=wrap;rounded=0;fontSize=40;" parent="1" vertex="1">
          <mxGeometry x="106" y="340" width="90" height="50" as="geometry" />
        </mxCell>
        <mxCell id="DUaDIjnE9S2bqJey5qyR-3" value="c)" style="text;html=1;strokeColor=none;fillColor=none;align=center;verticalAlign=middle;whiteSpace=wrap;rounded=0;fontSize=40;" parent="1" vertex="1">
          <mxGeometry x="106" y="660" width="90" height="50" as="geometry" />
        </mxCell>
        <mxCell id="DUaDIjnE9S2bqJey5qyR-8" style="edgeStyle=orthogonalEdgeStyle;rounded=0;orthogonalLoop=1;jettySize=auto;html=1;exitX=1;exitY=0.5;exitDx=0;exitDy=0;endArrow=none;endFill=0;" parent="1" source="DUaDIjnE9S2bqJey5qyR-4" target="DUaDIjnE9S2bqJey5qyR-5" edge="1">
          <mxGeometry relative="1" as="geometry" />
        </mxCell>
        <mxCell id="DUaDIjnE9S2bqJey5qyR-52" value="N" style="edgeLabel;html=1;align=center;verticalAlign=middle;resizable=0;points=[];" parent="DUaDIjnE9S2bqJey5qyR-8" vertex="1" connectable="0">
          <mxGeometry x="0.7" y="1" relative="1" as="geometry">
            <mxPoint y="-10" as="offset" />
          </mxGeometry>
        </mxCell>
        <mxCell id="DUaDIjnE9S2bqJey5qyR-9" style="edgeStyle=orthogonalEdgeStyle;rounded=0;orthogonalLoop=1;jettySize=auto;html=1;exitX=0;exitY=0.5;exitDx=0;exitDy=0;endArrow=none;endFill=0;" parent="1" source="DUaDIjnE9S2bqJey5qyR-4" target="DUaDIjnE9S2bqJey5qyR-7" edge="1">
          <mxGeometry relative="1" as="geometry" />
        </mxCell>
        <mxCell id="DUaDIjnE9S2bqJey5qyR-51" value="N" style="edgeLabel;html=1;align=center;verticalAlign=middle;resizable=0;points=[];" parent="DUaDIjnE9S2bqJey5qyR-9" vertex="1" connectable="0">
          <mxGeometry x="0.7" y="-1" relative="1" as="geometry">
            <mxPoint y="-9" as="offset" />
          </mxGeometry>
        </mxCell>
        <mxCell id="DUaDIjnE9S2bqJey5qyR-4" value="Conduzir" style="shape=rhombus;perimeter=rhombusPerimeter;whiteSpace=wrap;html=1;align=center;" parent="1" vertex="1">
          <mxGeometry x="762.25" y="220" width="120" height="60" as="geometry" />
        </mxCell>
        <mxCell id="DUaDIjnE9S2bqJey5qyR-5" value="Veículo" style="whiteSpace=wrap;html=1;align=center;" parent="1" vertex="1">
          <mxGeometry x="962.25" y="230" width="100" height="40" as="geometry" />
        </mxCell>
        <mxCell id="DUaDIjnE9S2bqJey5qyR-7" value="Motorista" style="whiteSpace=wrap;html=1;align=center;" parent="1" vertex="1">
          <mxGeometry x="582.25" y="230" width="100" height="40" as="geometry" />
        </mxCell>
        <mxCell id="DUaDIjnE9S2bqJey5qyR-14" value="Motorista" style="text;html=1;strokeColor=none;fillColor=none;align=center;verticalAlign=middle;whiteSpace=wrap;rounded=0;" parent="1" vertex="1">
          <mxGeometry x="226" y="90" width="60" height="30" as="geometry" />
        </mxCell>
        <mxCell id="DUaDIjnE9S2bqJey5qyR-15" value="Conduzir" style="text;html=1;strokeColor=none;fillColor=none;align=center;verticalAlign=middle;whiteSpace=wrap;rounded=0;" parent="1" vertex="1">
          <mxGeometry x="326" y="90" width="60" height="30" as="geometry" />
        </mxCell>
        <mxCell id="DUaDIjnE9S2bqJey5qyR-16" value="Veículo" style="text;html=1;strokeColor=none;fillColor=none;align=center;verticalAlign=middle;whiteSpace=wrap;rounded=0;" parent="1" vertex="1">
          <mxGeometry x="436" y="90" width="60" height="30" as="geometry" />
        </mxCell>
        <mxCell id="DUaDIjnE9S2bqJey5qyR-17" value="M1" style="text;strokeColor=none;fillColor=none;align=left;verticalAlign=middle;spacingLeft=4;spacingRight=4;overflow=hidden;points=[[0,0.5],[1,0.5]];portConstraint=eastwest;rotatable=0;whiteSpace=wrap;html=1;" parent="1" vertex="1">
          <mxGeometry x="241" y="150" width="30" height="30" as="geometry" />
        </mxCell>
        <mxCell id="DUaDIjnE9S2bqJey5qyR-18" value="M2" style="text;strokeColor=none;fillColor=none;align=left;verticalAlign=middle;spacingLeft=4;spacingRight=4;overflow=hidden;points=[[0,0.5],[1,0.5]];portConstraint=eastwest;rotatable=0;whiteSpace=wrap;html=1;" parent="1" vertex="1">
          <mxGeometry x="241" y="190" width="30" height="30" as="geometry" />
        </mxCell>
        <mxCell id="DUaDIjnE9S2bqJey5qyR-19" value="M3" style="text;strokeColor=none;fillColor=none;align=left;verticalAlign=middle;spacingLeft=4;spacingRight=4;overflow=hidden;points=[[0,0.5],[1,0.5]];portConstraint=eastwest;rotatable=0;whiteSpace=wrap;html=1;" parent="1" vertex="1">
          <mxGeometry x="241" y="230" width="30" height="30" as="geometry" />
        </mxCell>
        <mxCell id="DUaDIjnE9S2bqJey5qyR-20" value="M4" style="text;strokeColor=none;fillColor=none;align=left;verticalAlign=middle;spacingLeft=4;spacingRight=4;overflow=hidden;points=[[0,0.5],[1,0.5]];portConstraint=eastwest;rotatable=0;whiteSpace=wrap;html=1;" parent="1" vertex="1">
          <mxGeometry x="241" y="270" width="30" height="30" as="geometry" />
        </mxCell>
        <mxCell id="DUaDIjnE9S2bqJey5qyR-50" style="edgeStyle=orthogonalEdgeStyle;rounded=0;orthogonalLoop=1;jettySize=auto;html=1;entryX=0;entryY=0.5;entryDx=0;entryDy=0;endArrow=none;endFill=0;" parent="1" source="DUaDIjnE9S2bqJey5qyR-21" target="DUaDIjnE9S2bqJey5qyR-29" edge="1">
          <mxGeometry relative="1" as="geometry" />
        </mxCell>
        <mxCell id="DUaDIjnE9S2bqJey5qyR-21" value="" style="ellipse;whiteSpace=wrap;html=1;fillColor=#949494;" parent="1" vertex="1">
          <mxGeometry x="276" y="160" width="10" height="10" as="geometry" />
        </mxCell>
        <mxCell id="DUaDIjnE9S2bqJey5qyR-53" style="rounded=0;orthogonalLoop=1;jettySize=auto;html=1;entryX=0;entryY=0.5;entryDx=0;entryDy=0;endArrow=none;endFill=0;" parent="1" source="DUaDIjnE9S2bqJey5qyR-22" target="DUaDIjnE9S2bqJey5qyR-31" edge="1">
          <mxGeometry relative="1" as="geometry" />
        </mxCell>
        <mxCell id="DUaDIjnE9S2bqJey5qyR-22" value="" style="ellipse;whiteSpace=wrap;html=1;fillColor=#949494;" parent="1" vertex="1">
          <mxGeometry x="276" y="200" width="10" height="10" as="geometry" />
        </mxCell>
        <mxCell id="DUaDIjnE9S2bqJey5qyR-54" style="rounded=0;orthogonalLoop=1;jettySize=auto;html=1;entryX=0;entryY=0.5;entryDx=0;entryDy=0;endArrow=none;endFill=0;" parent="1" source="DUaDIjnE9S2bqJey5qyR-23" target="DUaDIjnE9S2bqJey5qyR-29" edge="1">
          <mxGeometry relative="1" as="geometry" />
        </mxCell>
        <mxCell id="DUaDIjnE9S2bqJey5qyR-23" value="" style="ellipse;whiteSpace=wrap;html=1;fillColor=#949494;" parent="1" vertex="1">
          <mxGeometry x="276" y="240" width="10" height="10" as="geometry" />
        </mxCell>
        <mxCell id="DUaDIjnE9S2bqJey5qyR-55" style="rounded=0;orthogonalLoop=1;jettySize=auto;html=1;entryX=0;entryY=0.5;entryDx=0;entryDy=0;endArrow=none;endFill=0;exitX=1;exitY=0.5;exitDx=0;exitDy=0;" parent="1" source="DUaDIjnE9S2bqJey5qyR-23" target="DUaDIjnE9S2bqJey5qyR-30" edge="1">
          <mxGeometry relative="1" as="geometry" />
        </mxCell>
        <mxCell id="DUaDIjnE9S2bqJey5qyR-24" value="" style="ellipse;whiteSpace=wrap;html=1;fillColor=#949494;" parent="1" vertex="1">
          <mxGeometry x="276" y="280" width="10" height="10" as="geometry" />
        </mxCell>
        <mxCell id="DUaDIjnE9S2bqJey5qyR-25" value="V1" style="text;strokeColor=none;fillColor=none;align=left;verticalAlign=middle;spacingLeft=4;spacingRight=4;overflow=hidden;points=[[0,0.5],[1,0.5]];portConstraint=eastwest;rotatable=0;whiteSpace=wrap;html=1;" parent="1" vertex="1">
          <mxGeometry x="451" y="150" width="30" height="30" as="geometry" />
        </mxCell>
        <mxCell id="DUaDIjnE9S2bqJey5qyR-26" value="V2" style="text;strokeColor=none;fillColor=none;align=left;verticalAlign=middle;spacingLeft=4;spacingRight=4;overflow=hidden;points=[[0,0.5],[1,0.5]];portConstraint=eastwest;rotatable=0;whiteSpace=wrap;html=1;" parent="1" vertex="1">
          <mxGeometry x="451" y="190" width="30" height="30" as="geometry" />
        </mxCell>
        <mxCell id="DUaDIjnE9S2bqJey5qyR-27" value="V3" style="text;strokeColor=none;fillColor=none;align=left;verticalAlign=middle;spacingLeft=4;spacingRight=4;overflow=hidden;points=[[0,0.5],[1,0.5]];portConstraint=eastwest;rotatable=0;whiteSpace=wrap;html=1;" parent="1" vertex="1">
          <mxGeometry x="451" y="230" width="30" height="30" as="geometry" />
        </mxCell>
        <mxCell id="DUaDIjnE9S2bqJey5qyR-28" value="V4" style="text;strokeColor=none;fillColor=none;align=left;verticalAlign=middle;spacingLeft=4;spacingRight=4;overflow=hidden;points=[[0,0.5],[1,0.5]];portConstraint=eastwest;rotatable=0;whiteSpace=wrap;html=1;" parent="1" vertex="1">
          <mxGeometry x="451" y="270" width="30" height="30" as="geometry" />
        </mxCell>
        <mxCell id="DUaDIjnE9S2bqJey5qyR-29" value="" style="ellipse;whiteSpace=wrap;html=1;fillColor=#949494;" parent="1" vertex="1">
          <mxGeometry x="426" y="160" width="10" height="10" as="geometry" />
        </mxCell>
        <mxCell id="DUaDIjnE9S2bqJey5qyR-30" value="" style="ellipse;whiteSpace=wrap;html=1;fillColor=#949494;" parent="1" vertex="1">
          <mxGeometry x="426" y="200" width="10" height="10" as="geometry" />
        </mxCell>
        <mxCell id="DUaDIjnE9S2bqJey5qyR-31" value="" style="ellipse;whiteSpace=wrap;html=1;fillColor=#949494;" parent="1" vertex="1">
          <mxGeometry x="426" y="240" width="10" height="10" as="geometry" />
        </mxCell>
        <mxCell id="DUaDIjnE9S2bqJey5qyR-32" value="" style="ellipse;whiteSpace=wrap;html=1;fillColor=#949494;" parent="1" vertex="1">
          <mxGeometry x="426" y="280" width="10" height="10" as="geometry" />
        </mxCell>
        <mxCell id="CNHZqhsD0iubdoF_1OJN-1" value="Fora de Serviço" style="ellipse;whiteSpace=wrap;html=1;align=center;" parent="1" vertex="1">
          <mxGeometry x="962" y="150" width="100" height="40" as="geometry" />
        </mxCell>
        <mxCell id="CNHZqhsD0iubdoF_1OJN-2" value="" style="endArrow=none;html=1;rounded=0;" parent="1" source="DUaDIjnE9S2bqJey5qyR-5" target="CNHZqhsD0iubdoF_1OJN-1" edge="1">
          <mxGeometry relative="1" as="geometry">
            <mxPoint x="840" y="150" as="sourcePoint" />
            <mxPoint x="1010" y="170" as="targetPoint" />
          </mxGeometry>
        </mxCell>
        <mxCell id="CNHZqhsD0iubdoF_1OJN-3" style="edgeStyle=orthogonalEdgeStyle;rounded=0;orthogonalLoop=1;jettySize=auto;html=1;exitX=1;exitY=0.5;exitDx=0;exitDy=0;endArrow=none;endFill=0;" parent="1" source="CNHZqhsD0iubdoF_1OJN-7" target="CNHZqhsD0iubdoF_1OJN-8" edge="1">
          <mxGeometry relative="1" as="geometry" />
        </mxCell>
        <mxCell id="CNHZqhsD0iubdoF_1OJN-4" value="N" style="edgeLabel;html=1;align=center;verticalAlign=middle;resizable=0;points=[];" parent="CNHZqhsD0iubdoF_1OJN-3" vertex="1" connectable="0">
          <mxGeometry x="0.7" y="1" relative="1" as="geometry">
            <mxPoint y="-10" as="offset" />
          </mxGeometry>
        </mxCell>
        <mxCell id="CNHZqhsD0iubdoF_1OJN-5" style="edgeStyle=orthogonalEdgeStyle;rounded=0;orthogonalLoop=1;jettySize=auto;html=1;exitX=0;exitY=0.5;exitDx=0;exitDy=0;endArrow=none;endFill=0;" parent="1" source="CNHZqhsD0iubdoF_1OJN-7" target="CNHZqhsD0iubdoF_1OJN-9" edge="1">
          <mxGeometry relative="1" as="geometry" />
        </mxCell>
        <mxCell id="CNHZqhsD0iubdoF_1OJN-6" value="N" style="edgeLabel;html=1;align=center;verticalAlign=middle;resizable=0;points=[];" parent="CNHZqhsD0iubdoF_1OJN-5" vertex="1" connectable="0">
          <mxGeometry x="0.7" y="-1" relative="1" as="geometry">
            <mxPoint y="-9" as="offset" />
          </mxGeometry>
        </mxCell>
        <mxCell id="CNHZqhsD0iubdoF_1OJN-7" value="Tratar" style="shape=rhombus;perimeter=rhombusPerimeter;whiteSpace=wrap;html=1;align=center;" parent="1" vertex="1">
          <mxGeometry x="762" y="550" width="120" height="60" as="geometry" />
        </mxCell>
        <mxCell id="CNHZqhsD0iubdoF_1OJN-8" value="Doente" style="whiteSpace=wrap;html=1;align=center;" parent="1" vertex="1">
          <mxGeometry x="962" y="560" width="100" height="40" as="geometry" />
        </mxCell>
        <mxCell id="CNHZqhsD0iubdoF_1OJN-9" value="Médico" style="whiteSpace=wrap;html=1;align=center;" parent="1" vertex="1">
          <mxGeometry x="582" y="560" width="100" height="40" as="geometry" />
        </mxCell>
        <mxCell id="CNHZqhsD0iubdoF_1OJN-10" value="Motorista" style="text;html=1;strokeColor=none;fillColor=none;align=center;verticalAlign=middle;whiteSpace=wrap;rounded=0;" parent="1" vertex="1">
          <mxGeometry x="225.75" y="420" width="60" height="30" as="geometry" />
        </mxCell>
        <mxCell id="CNHZqhsD0iubdoF_1OJN-11" value="Conduzir" style="text;html=1;strokeColor=none;fillColor=none;align=center;verticalAlign=middle;whiteSpace=wrap;rounded=0;" parent="1" vertex="1">
          <mxGeometry x="325.75" y="420" width="60" height="30" as="geometry" />
        </mxCell>
        <mxCell id="CNHZqhsD0iubdoF_1OJN-12" value="Veículo" style="text;html=1;strokeColor=none;fillColor=none;align=center;verticalAlign=middle;whiteSpace=wrap;rounded=0;" parent="1" vertex="1">
          <mxGeometry x="435.75" y="420" width="60" height="30" as="geometry" />
        </mxCell>
        <mxCell id="CNHZqhsD0iubdoF_1OJN-13" value="M1" style="text;strokeColor=none;fillColor=none;align=left;verticalAlign=middle;spacingLeft=4;spacingRight=4;overflow=hidden;points=[[0,0.5],[1,0.5]];portConstraint=eastwest;rotatable=0;whiteSpace=wrap;html=1;" parent="1" vertex="1">
          <mxGeometry x="240.75" y="480" width="30" height="30" as="geometry" />
        </mxCell>
        <mxCell id="CNHZqhsD0iubdoF_1OJN-14" value="M2" style="text;strokeColor=none;fillColor=none;align=left;verticalAlign=middle;spacingLeft=4;spacingRight=4;overflow=hidden;points=[[0,0.5],[1,0.5]];portConstraint=eastwest;rotatable=0;whiteSpace=wrap;html=1;" parent="1" vertex="1">
          <mxGeometry x="240.75" y="520" width="30" height="30" as="geometry" />
        </mxCell>
        <mxCell id="CNHZqhsD0iubdoF_1OJN-15" value="M3" style="text;strokeColor=none;fillColor=none;align=left;verticalAlign=middle;spacingLeft=4;spacingRight=4;overflow=hidden;points=[[0,0.5],[1,0.5]];portConstraint=eastwest;rotatable=0;whiteSpace=wrap;html=1;" parent="1" vertex="1">
          <mxGeometry x="240.75" y="560" width="30" height="30" as="geometry" />
        </mxCell>
        <mxCell id="CNHZqhsD0iubdoF_1OJN-16" value="M4" style="text;strokeColor=none;fillColor=none;align=left;verticalAlign=middle;spacingLeft=4;spacingRight=4;overflow=hidden;points=[[0,0.5],[1,0.5]];portConstraint=eastwest;rotatable=0;whiteSpace=wrap;html=1;" parent="1" vertex="1">
          <mxGeometry x="240.75" y="600" width="30" height="30" as="geometry" />
        </mxCell>
        <mxCell id="CNHZqhsD0iubdoF_1OJN-17" style="edgeStyle=orthogonalEdgeStyle;rounded=0;orthogonalLoop=1;jettySize=auto;html=1;entryX=0;entryY=0.5;entryDx=0;entryDy=0;endArrow=none;endFill=0;" parent="1" source="CNHZqhsD0iubdoF_1OJN-18" target="CNHZqhsD0iubdoF_1OJN-29" edge="1">
          <mxGeometry relative="1" as="geometry" />
        </mxCell>
        <mxCell id="CNHZqhsD0iubdoF_1OJN-18" value="" style="ellipse;whiteSpace=wrap;html=1;fillColor=#949494;" parent="1" vertex="1">
          <mxGeometry x="275.75" y="490" width="10" height="10" as="geometry" />
        </mxCell>
        <mxCell id="CNHZqhsD0iubdoF_1OJN-19" style="rounded=0;orthogonalLoop=1;jettySize=auto;html=1;entryX=0;entryY=0.5;entryDx=0;entryDy=0;endArrow=none;endFill=0;" parent="1" source="CNHZqhsD0iubdoF_1OJN-20" target="CNHZqhsD0iubdoF_1OJN-31" edge="1">
          <mxGeometry relative="1" as="geometry" />
        </mxCell>
        <mxCell id="CNHZqhsD0iubdoF_1OJN-20" value="" style="ellipse;whiteSpace=wrap;html=1;fillColor=#949494;" parent="1" vertex="1">
          <mxGeometry x="275.75" y="530" width="10" height="10" as="geometry" />
        </mxCell>
        <mxCell id="CNHZqhsD0iubdoF_1OJN-21" style="rounded=0;orthogonalLoop=1;jettySize=auto;html=1;entryX=0;entryY=0.5;entryDx=0;entryDy=0;endArrow=none;endFill=0;exitX=1;exitY=0;exitDx=0;exitDy=0;" parent="1" source="CNHZqhsD0iubdoF_1OJN-24" target="CNHZqhsD0iubdoF_1OJN-29" edge="1">
          <mxGeometry relative="1" as="geometry" />
        </mxCell>
        <mxCell id="CNHZqhsD0iubdoF_1OJN-22" value="" style="ellipse;whiteSpace=wrap;html=1;fillColor=#949494;" parent="1" vertex="1">
          <mxGeometry x="275.75" y="570" width="10" height="10" as="geometry" />
        </mxCell>
        <mxCell id="CNHZqhsD0iubdoF_1OJN-23" style="rounded=0;orthogonalLoop=1;jettySize=auto;html=1;entryX=0;entryY=0.5;entryDx=0;entryDy=0;endArrow=none;endFill=0;" parent="1" source="CNHZqhsD0iubdoF_1OJN-24" target="CNHZqhsD0iubdoF_1OJN-30" edge="1">
          <mxGeometry relative="1" as="geometry" />
        </mxCell>
        <mxCell id="CNHZqhsD0iubdoF_1OJN-24" value="" style="ellipse;whiteSpace=wrap;html=1;fillColor=#949494;" parent="1" vertex="1">
          <mxGeometry x="275.75" y="610" width="10" height="10" as="geometry" />
        </mxCell>
        <mxCell id="CNHZqhsD0iubdoF_1OJN-25" value="V1" style="text;strokeColor=none;fillColor=none;align=left;verticalAlign=middle;spacingLeft=4;spacingRight=4;overflow=hidden;points=[[0,0.5],[1,0.5]];portConstraint=eastwest;rotatable=0;whiteSpace=wrap;html=1;" parent="1" vertex="1">
          <mxGeometry x="450.75" y="480" width="30" height="30" as="geometry" />
        </mxCell>
        <mxCell id="CNHZqhsD0iubdoF_1OJN-26" value="V2" style="text;strokeColor=none;fillColor=none;align=left;verticalAlign=middle;spacingLeft=4;spacingRight=4;overflow=hidden;points=[[0,0.5],[1,0.5]];portConstraint=eastwest;rotatable=0;whiteSpace=wrap;html=1;" parent="1" vertex="1">
          <mxGeometry x="450.75" y="520" width="30" height="30" as="geometry" />
        </mxCell>
        <mxCell id="CNHZqhsD0iubdoF_1OJN-27" value="V3" style="text;strokeColor=none;fillColor=none;align=left;verticalAlign=middle;spacingLeft=4;spacingRight=4;overflow=hidden;points=[[0,0.5],[1,0.5]];portConstraint=eastwest;rotatable=0;whiteSpace=wrap;html=1;" parent="1" vertex="1">
          <mxGeometry x="450.75" y="560" width="30" height="30" as="geometry" />
        </mxCell>
        <mxCell id="CNHZqhsD0iubdoF_1OJN-28" value="V4" style="text;strokeColor=none;fillColor=none;align=left;verticalAlign=middle;spacingLeft=4;spacingRight=4;overflow=hidden;points=[[0,0.5],[1,0.5]];portConstraint=eastwest;rotatable=0;whiteSpace=wrap;html=1;" parent="1" vertex="1">
          <mxGeometry x="450.75" y="600" width="30" height="30" as="geometry" />
        </mxCell>
        <mxCell id="CNHZqhsD0iubdoF_1OJN-29" value="" style="ellipse;whiteSpace=wrap;html=1;fillColor=#949494;" parent="1" vertex="1">
          <mxGeometry x="425.75" y="490" width="10" height="10" as="geometry" />
        </mxCell>
        <mxCell id="CNHZqhsD0iubdoF_1OJN-30" value="" style="ellipse;whiteSpace=wrap;html=1;fillColor=#949494;" parent="1" vertex="1">
          <mxGeometry x="425.75" y="530" width="10" height="10" as="geometry" />
        </mxCell>
        <mxCell id="CNHZqhsD0iubdoF_1OJN-31" value="" style="ellipse;whiteSpace=wrap;html=1;fillColor=#949494;" parent="1" vertex="1">
          <mxGeometry x="425.75" y="570" width="10" height="10" as="geometry" />
        </mxCell>
        <mxCell id="CNHZqhsD0iubdoF_1OJN-32" value="" style="ellipse;whiteSpace=wrap;html=1;fillColor=#949494;" parent="1" vertex="1">
          <mxGeometry x="425.75" y="610" width="10" height="10" as="geometry" />
        </mxCell>
        <mxCell id="CNHZqhsD0iubdoF_1OJN-35" value="Dispensado" style="ellipse;whiteSpace=wrap;html=1;align=center;" parent="1" vertex="1">
          <mxGeometry x="582" y="480" width="100" height="40" as="geometry" />
        </mxCell>
        <mxCell id="CNHZqhsD0iubdoF_1OJN-36" value="" style="endArrow=none;html=1;rounded=0;" parent="1" source="CNHZqhsD0iubdoF_1OJN-35" target="CNHZqhsD0iubdoF_1OJN-9" edge="1">
          <mxGeometry relative="1" as="geometry">
            <mxPoint x="750" y="480" as="sourcePoint" />
            <mxPoint x="910" y="480" as="targetPoint" />
          </mxGeometry>
        </mxCell>
        <mxCell id="CNHZqhsD0iubdoF_1OJN-37" style="edgeStyle=orthogonalEdgeStyle;rounded=0;orthogonalLoop=1;jettySize=auto;html=1;exitX=1;exitY=0.5;exitDx=0;exitDy=0;endArrow=none;endFill=0;" parent="1" source="CNHZqhsD0iubdoF_1OJN-41" target="CNHZqhsD0iubdoF_1OJN-42" edge="1">
          <mxGeometry relative="1" as="geometry" />
        </mxCell>
        <mxCell id="CNHZqhsD0iubdoF_1OJN-38" value="1" style="edgeLabel;html=1;align=center;verticalAlign=middle;resizable=0;points=[];" parent="CNHZqhsD0iubdoF_1OJN-37" vertex="1" connectable="0">
          <mxGeometry x="0.7" y="1" relative="1" as="geometry">
            <mxPoint y="-10" as="offset" />
          </mxGeometry>
        </mxCell>
        <mxCell id="CNHZqhsD0iubdoF_1OJN-39" style="edgeStyle=orthogonalEdgeStyle;rounded=0;orthogonalLoop=1;jettySize=auto;html=1;exitX=0;exitY=0.5;exitDx=0;exitDy=0;endArrow=none;endFill=0;" parent="1" source="CNHZqhsD0iubdoF_1OJN-41" target="CNHZqhsD0iubdoF_1OJN-43" edge="1">
          <mxGeometry relative="1" as="geometry" />
        </mxCell>
        <mxCell id="CNHZqhsD0iubdoF_1OJN-40" value="N" style="edgeLabel;html=1;align=center;verticalAlign=middle;resizable=0;points=[];" parent="CNHZqhsD0iubdoF_1OJN-39" vertex="1" connectable="0">
          <mxGeometry x="0.7" y="-1" relative="1" as="geometry">
            <mxPoint y="-9" as="offset" />
          </mxGeometry>
        </mxCell>
        <mxCell id="CNHZqhsD0iubdoF_1OJN-41" value="Pertence" style="shape=rhombus;perimeter=rhombusPerimeter;whiteSpace=wrap;html=1;align=center;" parent="1" vertex="1">
          <mxGeometry x="762.25" y="880" width="120" height="60" as="geometry" />
        </mxCell>
        <mxCell id="CNHZqhsD0iubdoF_1OJN-42" value="Fornecedor" style="whiteSpace=wrap;html=1;align=center;" parent="1" vertex="1">
          <mxGeometry x="962.25" y="890" width="100" height="40" as="geometry" />
        </mxCell>
        <mxCell id="CNHZqhsD0iubdoF_1OJN-43" value="Produto" style="whiteSpace=wrap;html=1;align=center;" parent="1" vertex="1">
          <mxGeometry x="582.25" y="890" width="100" height="40" as="geometry" />
        </mxCell>
        <mxCell id="CNHZqhsD0iubdoF_1OJN-44" value="Produto" style="text;html=1;strokeColor=none;fillColor=none;align=center;verticalAlign=middle;whiteSpace=wrap;rounded=0;" parent="1" vertex="1">
          <mxGeometry x="226" y="750" width="60" height="30" as="geometry" />
        </mxCell>
        <mxCell id="CNHZqhsD0iubdoF_1OJN-45" value="Conduzir" style="text;html=1;strokeColor=none;fillColor=none;align=center;verticalAlign=middle;whiteSpace=wrap;rounded=0;" parent="1" vertex="1">
          <mxGeometry x="326" y="750" width="60" height="30" as="geometry" />
        </mxCell>
        <mxCell id="CNHZqhsD0iubdoF_1OJN-46" value="Fornecedor" style="text;html=1;strokeColor=none;fillColor=none;align=center;verticalAlign=middle;whiteSpace=wrap;rounded=0;" parent="1" vertex="1">
          <mxGeometry x="436" y="750" width="60" height="30" as="geometry" />
        </mxCell>
        <mxCell id="CNHZqhsD0iubdoF_1OJN-47" value="P1" style="text;strokeColor=none;fillColor=none;align=left;verticalAlign=middle;spacingLeft=4;spacingRight=4;overflow=hidden;points=[[0,0.5],[1,0.5]];portConstraint=eastwest;rotatable=0;whiteSpace=wrap;html=1;" parent="1" vertex="1">
          <mxGeometry x="241" y="810" width="30" height="30" as="geometry" />
        </mxCell>
        <mxCell id="CNHZqhsD0iubdoF_1OJN-48" value="P2" style="text;strokeColor=none;fillColor=none;align=left;verticalAlign=middle;spacingLeft=4;spacingRight=4;overflow=hidden;points=[[0,0.5],[1,0.5]];portConstraint=eastwest;rotatable=0;whiteSpace=wrap;html=1;" parent="1" vertex="1">
          <mxGeometry x="241" y="850" width="30" height="30" as="geometry" />
        </mxCell>
        <mxCell id="CNHZqhsD0iubdoF_1OJN-49" value="P3" style="text;strokeColor=none;fillColor=none;align=left;verticalAlign=middle;spacingLeft=4;spacingRight=4;overflow=hidden;points=[[0,0.5],[1,0.5]];portConstraint=eastwest;rotatable=0;whiteSpace=wrap;html=1;" parent="1" vertex="1">
          <mxGeometry x="241" y="890" width="30" height="30" as="geometry" />
        </mxCell>
        <mxCell id="CNHZqhsD0iubdoF_1OJN-50" value="P4" style="text;strokeColor=none;fillColor=none;align=left;verticalAlign=middle;spacingLeft=4;spacingRight=4;overflow=hidden;points=[[0,0.5],[1,0.5]];portConstraint=eastwest;rotatable=0;whiteSpace=wrap;html=1;" parent="1" vertex="1">
          <mxGeometry x="241" y="930" width="30" height="30" as="geometry" />
        </mxCell>
        <mxCell id="CNHZqhsD0iubdoF_1OJN-51" style="edgeStyle=orthogonalEdgeStyle;rounded=0;orthogonalLoop=1;jettySize=auto;html=1;entryX=0;entryY=0.5;entryDx=0;entryDy=0;endArrow=none;endFill=0;" parent="1" source="CNHZqhsD0iubdoF_1OJN-52" target="CNHZqhsD0iubdoF_1OJN-63" edge="1">
          <mxGeometry relative="1" as="geometry" />
        </mxCell>
        <mxCell id="CNHZqhsD0iubdoF_1OJN-52" value="" style="ellipse;whiteSpace=wrap;html=1;fillColor=#949494;" parent="1" vertex="1">
          <mxGeometry x="276" y="820" width="10" height="10" as="geometry" />
        </mxCell>
        <mxCell id="CNHZqhsD0iubdoF_1OJN-53" style="rounded=0;orthogonalLoop=1;jettySize=auto;html=1;entryX=0;entryY=0.5;entryDx=0;entryDy=0;endArrow=none;endFill=0;" parent="1" source="CNHZqhsD0iubdoF_1OJN-54" target="CNHZqhsD0iubdoF_1OJN-65" edge="1">
          <mxGeometry relative="1" as="geometry" />
        </mxCell>
        <mxCell id="CNHZqhsD0iubdoF_1OJN-54" value="" style="ellipse;whiteSpace=wrap;html=1;fillColor=#949494;" parent="1" vertex="1">
          <mxGeometry x="276" y="860" width="10" height="10" as="geometry" />
        </mxCell>
        <mxCell id="CNHZqhsD0iubdoF_1OJN-55" style="rounded=0;orthogonalLoop=1;jettySize=auto;html=1;entryX=0;entryY=0.5;entryDx=0;entryDy=0;endArrow=none;endFill=0;" parent="1" source="CNHZqhsD0iubdoF_1OJN-56" target="CNHZqhsD0iubdoF_1OJN-63" edge="1">
          <mxGeometry relative="1" as="geometry" />
        </mxCell>
        <mxCell id="CNHZqhsD0iubdoF_1OJN-56" value="" style="ellipse;whiteSpace=wrap;html=1;fillColor=#949494;" parent="1" vertex="1">
          <mxGeometry x="276" y="900" width="10" height="10" as="geometry" />
        </mxCell>
        <mxCell id="CNHZqhsD0iubdoF_1OJN-58" value="" style="ellipse;whiteSpace=wrap;html=1;fillColor=#949494;" parent="1" vertex="1">
          <mxGeometry x="276" y="940" width="10" height="10" as="geometry" />
        </mxCell>
        <mxCell id="CNHZqhsD0iubdoF_1OJN-59" value="F1" style="text;strokeColor=none;fillColor=none;align=left;verticalAlign=middle;spacingLeft=4;spacingRight=4;overflow=hidden;points=[[0,0.5],[1,0.5]];portConstraint=eastwest;rotatable=0;whiteSpace=wrap;html=1;" parent="1" vertex="1">
          <mxGeometry x="451" y="810" width="30" height="30" as="geometry" />
        </mxCell>
        <mxCell id="CNHZqhsD0iubdoF_1OJN-60" value="F2" style="text;strokeColor=none;fillColor=none;align=left;verticalAlign=middle;spacingLeft=4;spacingRight=4;overflow=hidden;points=[[0,0.5],[1,0.5]];portConstraint=eastwest;rotatable=0;whiteSpace=wrap;html=1;" parent="1" vertex="1">
          <mxGeometry x="451" y="850" width="30" height="30" as="geometry" />
        </mxCell>
        <mxCell id="CNHZqhsD0iubdoF_1OJN-61" value="F3" style="text;strokeColor=none;fillColor=none;align=left;verticalAlign=middle;spacingLeft=4;spacingRight=4;overflow=hidden;points=[[0,0.5],[1,0.5]];portConstraint=eastwest;rotatable=0;whiteSpace=wrap;html=1;" parent="1" vertex="1">
          <mxGeometry x="451" y="890" width="30" height="30" as="geometry" />
        </mxCell>
        <mxCell id="CNHZqhsD0iubdoF_1OJN-62" value="F4" style="text;strokeColor=none;fillColor=none;align=left;verticalAlign=middle;spacingLeft=4;spacingRight=4;overflow=hidden;points=[[0,0.5],[1,0.5]];portConstraint=eastwest;rotatable=0;whiteSpace=wrap;html=1;" parent="1" vertex="1">
          <mxGeometry x="451" y="930" width="30" height="30" as="geometry" />
        </mxCell>
        <mxCell id="CNHZqhsD0iubdoF_1OJN-63" value="" style="ellipse;whiteSpace=wrap;html=1;fillColor=#949494;" parent="1" vertex="1">
          <mxGeometry x="426" y="820" width="10" height="10" as="geometry" />
        </mxCell>
        <mxCell id="CNHZqhsD0iubdoF_1OJN-64" value="" style="ellipse;whiteSpace=wrap;html=1;fillColor=#949494;" parent="1" vertex="1">
          <mxGeometry x="426" y="860" width="10" height="10" as="geometry" />
        </mxCell>
        <mxCell id="CNHZqhsD0iubdoF_1OJN-65" value="" style="ellipse;whiteSpace=wrap;html=1;fillColor=#949494;" parent="1" vertex="1">
          <mxGeometry x="426" y="900" width="10" height="10" as="geometry" />
        </mxCell>
        <mxCell id="CNHZqhsD0iubdoF_1OJN-133" style="rounded=0;orthogonalLoop=1;jettySize=auto;html=1;exitX=0;exitY=0.5;exitDx=0;exitDy=0;endArrow=none;endFill=0;" parent="1" source="CNHZqhsD0iubdoF_1OJN-66" edge="1">
          <mxGeometry relative="1" as="geometry">
            <mxPoint x="281" y="945" as="targetPoint" />
          </mxGeometry>
        </mxCell>
        <mxCell id="CNHZqhsD0iubdoF_1OJN-66" value="" style="ellipse;whiteSpace=wrap;html=1;fillColor=#949494;" parent="1" vertex="1">
          <mxGeometry x="426" y="940" width="10" height="10" as="geometry" />
        </mxCell>
        <mxCell id="CNHZqhsD0iubdoF_1OJN-69" value="d)" style="text;html=1;strokeColor=none;fillColor=none;align=center;verticalAlign=middle;whiteSpace=wrap;rounded=0;fontSize=40;" parent="1" vertex="1">
          <mxGeometry x="106" y="980" width="90" height="50" as="geometry" />
        </mxCell>
        <mxCell id="CNHZqhsD0iubdoF_1OJN-70" value="e)" style="text;html=1;strokeColor=none;fillColor=none;align=center;verticalAlign=middle;whiteSpace=wrap;rounded=0;fontSize=40;" parent="1" vertex="1">
          <mxGeometry x="106" y="1300" width="90" height="50" as="geometry" />
        </mxCell>
        <mxCell id="CNHZqhsD0iubdoF_1OJN-71" style="edgeStyle=orthogonalEdgeStyle;rounded=0;orthogonalLoop=1;jettySize=auto;html=1;exitX=1;exitY=0.5;exitDx=0;exitDy=0;endArrow=none;endFill=0;" parent="1" source="CNHZqhsD0iubdoF_1OJN-75" target="CNHZqhsD0iubdoF_1OJN-76" edge="1">
          <mxGeometry relative="1" as="geometry" />
        </mxCell>
        <mxCell id="CNHZqhsD0iubdoF_1OJN-72" value="N" style="edgeLabel;html=1;align=center;verticalAlign=middle;resizable=0;points=[];" parent="CNHZqhsD0iubdoF_1OJN-71" vertex="1" connectable="0">
          <mxGeometry x="0.7" y="1" relative="1" as="geometry">
            <mxPoint y="-10" as="offset" />
          </mxGeometry>
        </mxCell>
        <mxCell id="CNHZqhsD0iubdoF_1OJN-73" style="edgeStyle=orthogonalEdgeStyle;rounded=0;orthogonalLoop=1;jettySize=auto;html=1;exitX=0;exitY=0.5;exitDx=0;exitDy=0;endArrow=none;endFill=0;" parent="1" source="CNHZqhsD0iubdoF_1OJN-75" target="CNHZqhsD0iubdoF_1OJN-77" edge="1">
          <mxGeometry relative="1" as="geometry" />
        </mxCell>
        <mxCell id="CNHZqhsD0iubdoF_1OJN-74" value="N" style="edgeLabel;html=1;align=center;verticalAlign=middle;resizable=0;points=[];" parent="CNHZqhsD0iubdoF_1OJN-73" vertex="1" connectable="0">
          <mxGeometry x="0.7" y="-1" relative="1" as="geometry">
            <mxPoint y="-9" as="offset" />
          </mxGeometry>
        </mxCell>
        <mxCell id="CNHZqhsD0iubdoF_1OJN-75" value="Encomendar" style="shape=rhombus;perimeter=rhombusPerimeter;whiteSpace=wrap;html=1;align=center;" parent="1" vertex="1">
          <mxGeometry x="762" y="1190" width="120" height="60" as="geometry" />
        </mxCell>
        <mxCell id="CNHZqhsD0iubdoF_1OJN-76" value="Produto" style="whiteSpace=wrap;html=1;align=center;" parent="1" vertex="1">
          <mxGeometry x="962" y="1200" width="100" height="40" as="geometry" />
        </mxCell>
        <mxCell id="CNHZqhsD0iubdoF_1OJN-77" value="Cliente" style="whiteSpace=wrap;html=1;align=center;" parent="1" vertex="1">
          <mxGeometry x="582" y="1200" width="100" height="40" as="geometry" />
        </mxCell>
        <mxCell id="CNHZqhsD0iubdoF_1OJN-78" value="Cliente" style="text;html=1;strokeColor=none;fillColor=none;align=center;verticalAlign=middle;whiteSpace=wrap;rounded=0;" parent="1" vertex="1">
          <mxGeometry x="225.75" y="1060" width="60" height="30" as="geometry" />
        </mxCell>
        <mxCell id="CNHZqhsD0iubdoF_1OJN-79" value="Encomendar" style="text;html=1;strokeColor=none;fillColor=none;align=center;verticalAlign=middle;whiteSpace=wrap;rounded=0;" parent="1" vertex="1">
          <mxGeometry x="325.75" y="1060" width="60" height="30" as="geometry" />
        </mxCell>
        <mxCell id="CNHZqhsD0iubdoF_1OJN-80" value="Produto" style="text;html=1;strokeColor=none;fillColor=none;align=center;verticalAlign=middle;whiteSpace=wrap;rounded=0;" parent="1" vertex="1">
          <mxGeometry x="435.75" y="1060" width="60" height="30" as="geometry" />
        </mxCell>
        <mxCell id="CNHZqhsD0iubdoF_1OJN-81" value="C1" style="text;strokeColor=none;fillColor=none;align=left;verticalAlign=middle;spacingLeft=4;spacingRight=4;overflow=hidden;points=[[0,0.5],[1,0.5]];portConstraint=eastwest;rotatable=0;whiteSpace=wrap;html=1;" parent="1" vertex="1">
          <mxGeometry x="240.75" y="1120" width="30" height="30" as="geometry" />
        </mxCell>
        <mxCell id="CNHZqhsD0iubdoF_1OJN-82" value="C2" style="text;strokeColor=none;fillColor=none;align=left;verticalAlign=middle;spacingLeft=4;spacingRight=4;overflow=hidden;points=[[0,0.5],[1,0.5]];portConstraint=eastwest;rotatable=0;whiteSpace=wrap;html=1;" parent="1" vertex="1">
          <mxGeometry x="240.75" y="1160" width="30" height="30" as="geometry" />
        </mxCell>
        <mxCell id="CNHZqhsD0iubdoF_1OJN-83" value="C3" style="text;strokeColor=none;fillColor=none;align=left;verticalAlign=middle;spacingLeft=4;spacingRight=4;overflow=hidden;points=[[0,0.5],[1,0.5]];portConstraint=eastwest;rotatable=0;whiteSpace=wrap;html=1;" parent="1" vertex="1">
          <mxGeometry x="240.75" y="1200" width="30" height="30" as="geometry" />
        </mxCell>
        <mxCell id="CNHZqhsD0iubdoF_1OJN-84" value="C4" style="text;strokeColor=none;fillColor=none;align=left;verticalAlign=middle;spacingLeft=4;spacingRight=4;overflow=hidden;points=[[0,0.5],[1,0.5]];portConstraint=eastwest;rotatable=0;whiteSpace=wrap;html=1;" parent="1" vertex="1">
          <mxGeometry x="240.75" y="1240" width="30" height="30" as="geometry" />
        </mxCell>
        <mxCell id="CNHZqhsD0iubdoF_1OJN-85" style="edgeStyle=orthogonalEdgeStyle;rounded=0;orthogonalLoop=1;jettySize=auto;html=1;entryX=0;entryY=0.5;entryDx=0;entryDy=0;endArrow=none;endFill=0;" parent="1" source="CNHZqhsD0iubdoF_1OJN-86" target="CNHZqhsD0iubdoF_1OJN-97" edge="1">
          <mxGeometry relative="1" as="geometry" />
        </mxCell>
        <mxCell id="CNHZqhsD0iubdoF_1OJN-86" value="" style="ellipse;whiteSpace=wrap;html=1;fillColor=#949494;" parent="1" vertex="1">
          <mxGeometry x="275.75" y="1130" width="10" height="10" as="geometry" />
        </mxCell>
        <mxCell id="CNHZqhsD0iubdoF_1OJN-87" style="rounded=0;orthogonalLoop=1;jettySize=auto;html=1;entryX=0;entryY=0.5;entryDx=0;entryDy=0;endArrow=none;endFill=0;" parent="1" source="CNHZqhsD0iubdoF_1OJN-88" target="CNHZqhsD0iubdoF_1OJN-99" edge="1">
          <mxGeometry relative="1" as="geometry" />
        </mxCell>
        <mxCell id="CNHZqhsD0iubdoF_1OJN-88" value="" style="ellipse;whiteSpace=wrap;html=1;fillColor=#949494;" parent="1" vertex="1">
          <mxGeometry x="275.75" y="1170" width="10" height="10" as="geometry" />
        </mxCell>
        <mxCell id="CNHZqhsD0iubdoF_1OJN-89" style="rounded=0;orthogonalLoop=1;jettySize=auto;html=1;entryX=0;entryY=0.5;entryDx=0;entryDy=0;endArrow=none;endFill=0;" parent="1" source="CNHZqhsD0iubdoF_1OJN-90" target="CNHZqhsD0iubdoF_1OJN-97" edge="1">
          <mxGeometry relative="1" as="geometry" />
        </mxCell>
        <mxCell id="CNHZqhsD0iubdoF_1OJN-90" value="" style="ellipse;whiteSpace=wrap;html=1;fillColor=#949494;" parent="1" vertex="1">
          <mxGeometry x="275.75" y="1210" width="10" height="10" as="geometry" />
        </mxCell>
        <mxCell id="CNHZqhsD0iubdoF_1OJN-91" style="rounded=0;orthogonalLoop=1;jettySize=auto;html=1;entryX=0;entryY=0.5;entryDx=0;entryDy=0;endArrow=none;endFill=0;" parent="1" source="CNHZqhsD0iubdoF_1OJN-92" target="CNHZqhsD0iubdoF_1OJN-98" edge="1">
          <mxGeometry relative="1" as="geometry" />
        </mxCell>
        <mxCell id="CNHZqhsD0iubdoF_1OJN-92" value="" style="ellipse;whiteSpace=wrap;html=1;fillColor=#949494;" parent="1" vertex="1">
          <mxGeometry x="275.75" y="1250" width="10" height="10" as="geometry" />
        </mxCell>
        <mxCell id="CNHZqhsD0iubdoF_1OJN-93" value="P1" style="text;strokeColor=none;fillColor=none;align=left;verticalAlign=middle;spacingLeft=4;spacingRight=4;overflow=hidden;points=[[0,0.5],[1,0.5]];portConstraint=eastwest;rotatable=0;whiteSpace=wrap;html=1;" parent="1" vertex="1">
          <mxGeometry x="450.75" y="1120" width="30" height="30" as="geometry" />
        </mxCell>
        <mxCell id="CNHZqhsD0iubdoF_1OJN-94" value="P2" style="text;strokeColor=none;fillColor=none;align=left;verticalAlign=middle;spacingLeft=4;spacingRight=4;overflow=hidden;points=[[0,0.5],[1,0.5]];portConstraint=eastwest;rotatable=0;whiteSpace=wrap;html=1;" parent="1" vertex="1">
          <mxGeometry x="450.75" y="1160" width="30" height="30" as="geometry" />
        </mxCell>
        <mxCell id="CNHZqhsD0iubdoF_1OJN-95" value="P3" style="text;strokeColor=none;fillColor=none;align=left;verticalAlign=middle;spacingLeft=4;spacingRight=4;overflow=hidden;points=[[0,0.5],[1,0.5]];portConstraint=eastwest;rotatable=0;whiteSpace=wrap;html=1;" parent="1" vertex="1">
          <mxGeometry x="450.75" y="1200" width="30" height="30" as="geometry" />
        </mxCell>
        <mxCell id="CNHZqhsD0iubdoF_1OJN-96" value="P4" style="text;strokeColor=none;fillColor=none;align=left;verticalAlign=middle;spacingLeft=4;spacingRight=4;overflow=hidden;points=[[0,0.5],[1,0.5]];portConstraint=eastwest;rotatable=0;whiteSpace=wrap;html=1;" parent="1" vertex="1">
          <mxGeometry x="450.75" y="1240" width="30" height="30" as="geometry" />
        </mxCell>
        <mxCell id="CNHZqhsD0iubdoF_1OJN-97" value="" style="ellipse;whiteSpace=wrap;html=1;fillColor=#949494;" parent="1" vertex="1">
          <mxGeometry x="425.75" y="1130" width="10" height="10" as="geometry" />
        </mxCell>
        <mxCell id="CNHZqhsD0iubdoF_1OJN-98" value="" style="ellipse;whiteSpace=wrap;html=1;fillColor=#949494;" parent="1" vertex="1">
          <mxGeometry x="425.75" y="1170" width="10" height="10" as="geometry" />
        </mxCell>
        <mxCell id="CNHZqhsD0iubdoF_1OJN-99" value="" style="ellipse;whiteSpace=wrap;html=1;fillColor=#949494;" parent="1" vertex="1">
          <mxGeometry x="425.75" y="1210" width="10" height="10" as="geometry" />
        </mxCell>
        <mxCell id="CNHZqhsD0iubdoF_1OJN-100" value="" style="ellipse;whiteSpace=wrap;html=1;fillColor=#949494;" parent="1" vertex="1">
          <mxGeometry x="425.75" y="1250" width="10" height="10" as="geometry" />
        </mxCell>
        <mxCell id="CNHZqhsD0iubdoF_1OJN-103" style="edgeStyle=orthogonalEdgeStyle;rounded=0;orthogonalLoop=1;jettySize=auto;html=1;exitX=1;exitY=0.5;exitDx=0;exitDy=0;endArrow=none;endFill=0;" parent="1" source="CNHZqhsD0iubdoF_1OJN-107" target="CNHZqhsD0iubdoF_1OJN-108" edge="1">
          <mxGeometry relative="1" as="geometry" />
        </mxCell>
        <mxCell id="CNHZqhsD0iubdoF_1OJN-104" value="1" style="edgeLabel;html=1;align=center;verticalAlign=middle;resizable=0;points=[];" parent="CNHZqhsD0iubdoF_1OJN-103" vertex="1" connectable="0">
          <mxGeometry x="0.7" y="1" relative="1" as="geometry">
            <mxPoint y="-10" as="offset" />
          </mxGeometry>
        </mxCell>
        <mxCell id="CNHZqhsD0iubdoF_1OJN-105" style="edgeStyle=orthogonalEdgeStyle;rounded=0;orthogonalLoop=1;jettySize=auto;html=1;exitX=0;exitY=0.5;exitDx=0;exitDy=0;endArrow=none;endFill=0;" parent="1" source="CNHZqhsD0iubdoF_1OJN-107" target="CNHZqhsD0iubdoF_1OJN-109" edge="1">
          <mxGeometry relative="1" as="geometry" />
        </mxCell>
        <mxCell id="CNHZqhsD0iubdoF_1OJN-106" value="N" style="edgeLabel;html=1;align=center;verticalAlign=middle;resizable=0;points=[];" parent="CNHZqhsD0iubdoF_1OJN-105" vertex="1" connectable="0">
          <mxGeometry x="0.7" y="-1" relative="1" as="geometry">
            <mxPoint y="-9" as="offset" />
          </mxGeometry>
        </mxCell>
        <mxCell id="CNHZqhsD0iubdoF_1OJN-107" value="Pertencer" style="shape=rhombus;perimeter=rhombusPerimeter;whiteSpace=wrap;html=1;align=center;" parent="1" vertex="1">
          <mxGeometry x="850" y="1385" width="120" height="60" as="geometry" />
        </mxCell>
        <mxCell id="CNHZqhsD0iubdoF_1OJN-108" value="Clube" style="whiteSpace=wrap;html=1;align=center;" parent="1" vertex="1">
          <mxGeometry x="1050" y="1395" width="100" height="40" as="geometry" />
        </mxCell>
        <mxCell id="CNHZqhsD0iubdoF_1OJN-109" value="Jogador" style="whiteSpace=wrap;html=1;align=center;" parent="1" vertex="1">
          <mxGeometry x="670" y="1395" width="100" height="40" as="geometry" />
        </mxCell>
        <mxCell id="CNHZqhsD0iubdoF_1OJN-110" value="Jogador" style="text;html=1;strokeColor=none;fillColor=none;align=center;verticalAlign=middle;whiteSpace=wrap;rounded=0;" parent="1" vertex="1">
          <mxGeometry x="370" y="1395" width="60" height="30" as="geometry" />
        </mxCell>
        <mxCell id="CNHZqhsD0iubdoF_1OJN-111" value="Pertencer" style="text;html=1;strokeColor=none;fillColor=none;align=center;verticalAlign=middle;whiteSpace=wrap;rounded=0;" parent="1" vertex="1">
          <mxGeometry x="470" y="1395" width="60" height="30" as="geometry" />
        </mxCell>
        <mxCell id="CNHZqhsD0iubdoF_1OJN-112" value="Clube" style="text;html=1;strokeColor=none;fillColor=none;align=center;verticalAlign=middle;whiteSpace=wrap;rounded=0;" parent="1" vertex="1">
          <mxGeometry x="580" y="1395" width="60" height="30" as="geometry" />
        </mxCell>
        <mxCell id="CNHZqhsD0iubdoF_1OJN-113" value="J1" style="text;strokeColor=none;fillColor=none;align=left;verticalAlign=middle;spacingLeft=4;spacingRight=4;overflow=hidden;points=[[0,0.5],[1,0.5]];portConstraint=eastwest;rotatable=0;whiteSpace=wrap;html=1;" parent="1" vertex="1">
          <mxGeometry x="385" y="1455" width="30" height="30" as="geometry" />
        </mxCell>
        <mxCell id="CNHZqhsD0iubdoF_1OJN-114" value="J2" style="text;strokeColor=none;fillColor=none;align=left;verticalAlign=middle;spacingLeft=4;spacingRight=4;overflow=hidden;points=[[0,0.5],[1,0.5]];portConstraint=eastwest;rotatable=0;whiteSpace=wrap;html=1;" parent="1" vertex="1">
          <mxGeometry x="385" y="1495" width="30" height="30" as="geometry" />
        </mxCell>
        <mxCell id="CNHZqhsD0iubdoF_1OJN-115" value="J3" style="text;strokeColor=none;fillColor=none;align=left;verticalAlign=middle;spacingLeft=4;spacingRight=4;overflow=hidden;points=[[0,0.5],[1,0.5]];portConstraint=eastwest;rotatable=0;whiteSpace=wrap;html=1;" parent="1" vertex="1">
          <mxGeometry x="385" y="1535" width="30" height="30" as="geometry" />
        </mxCell>
        <mxCell id="CNHZqhsD0iubdoF_1OJN-116" value="J4" style="text;strokeColor=none;fillColor=none;align=left;verticalAlign=middle;spacingLeft=4;spacingRight=4;overflow=hidden;points=[[0,0.5],[1,0.5]];portConstraint=eastwest;rotatable=0;whiteSpace=wrap;html=1;" parent="1" vertex="1">
          <mxGeometry x="385" y="1575" width="30" height="30" as="geometry" />
        </mxCell>
        <mxCell id="CNHZqhsD0iubdoF_1OJN-117" style="edgeStyle=orthogonalEdgeStyle;rounded=0;orthogonalLoop=1;jettySize=auto;html=1;entryX=0;entryY=0.5;entryDx=0;entryDy=0;endArrow=none;endFill=0;" parent="1" source="CNHZqhsD0iubdoF_1OJN-118" target="CNHZqhsD0iubdoF_1OJN-129" edge="1">
          <mxGeometry relative="1" as="geometry" />
        </mxCell>
        <mxCell id="CNHZqhsD0iubdoF_1OJN-118" value="" style="ellipse;whiteSpace=wrap;html=1;fillColor=#949494;" parent="1" vertex="1">
          <mxGeometry x="420" y="1465" width="10" height="10" as="geometry" />
        </mxCell>
        <mxCell id="CNHZqhsD0iubdoF_1OJN-119" style="rounded=0;orthogonalLoop=1;jettySize=auto;html=1;entryX=0;entryY=0.5;entryDx=0;entryDy=0;endArrow=none;endFill=0;" parent="1" source="CNHZqhsD0iubdoF_1OJN-120" target="CNHZqhsD0iubdoF_1OJN-131" edge="1">
          <mxGeometry relative="1" as="geometry" />
        </mxCell>
        <mxCell id="CNHZqhsD0iubdoF_1OJN-120" value="" style="ellipse;whiteSpace=wrap;html=1;fillColor=#949494;" parent="1" vertex="1">
          <mxGeometry x="420" y="1505" width="10" height="10" as="geometry" />
        </mxCell>
        <mxCell id="CNHZqhsD0iubdoF_1OJN-121" style="rounded=0;orthogonalLoop=1;jettySize=auto;html=1;entryX=0;entryY=0.5;entryDx=0;entryDy=0;endArrow=none;endFill=0;" parent="1" source="CNHZqhsD0iubdoF_1OJN-122" target="CNHZqhsD0iubdoF_1OJN-129" edge="1">
          <mxGeometry relative="1" as="geometry" />
        </mxCell>
        <mxCell id="CNHZqhsD0iubdoF_1OJN-122" value="" style="ellipse;whiteSpace=wrap;html=1;fillColor=#949494;" parent="1" vertex="1">
          <mxGeometry x="420" y="1545" width="10" height="10" as="geometry" />
        </mxCell>
        <mxCell id="CNHZqhsD0iubdoF_1OJN-123" style="rounded=0;orthogonalLoop=1;jettySize=auto;html=1;entryX=0;entryY=0.5;entryDx=0;entryDy=0;endArrow=none;endFill=0;" parent="1" source="CNHZqhsD0iubdoF_1OJN-124" target="CNHZqhsD0iubdoF_1OJN-131" edge="1">
          <mxGeometry relative="1" as="geometry" />
        </mxCell>
        <mxCell id="CNHZqhsD0iubdoF_1OJN-124" value="" style="ellipse;whiteSpace=wrap;html=1;fillColor=#949494;" parent="1" vertex="1">
          <mxGeometry x="420" y="1585" width="10" height="10" as="geometry" />
        </mxCell>
        <mxCell id="CNHZqhsD0iubdoF_1OJN-125" value="C1" style="text;strokeColor=none;fillColor=none;align=left;verticalAlign=middle;spacingLeft=4;spacingRight=4;overflow=hidden;points=[[0,0.5],[1,0.5]];portConstraint=eastwest;rotatable=0;whiteSpace=wrap;html=1;" parent="1" vertex="1">
          <mxGeometry x="595" y="1455" width="30" height="30" as="geometry" />
        </mxCell>
        <mxCell id="CNHZqhsD0iubdoF_1OJN-126" value="C2" style="text;strokeColor=none;fillColor=none;align=left;verticalAlign=middle;spacingLeft=4;spacingRight=4;overflow=hidden;points=[[0,0.5],[1,0.5]];portConstraint=eastwest;rotatable=0;whiteSpace=wrap;html=1;" parent="1" vertex="1">
          <mxGeometry x="595" y="1495" width="30" height="30" as="geometry" />
        </mxCell>
        <mxCell id="CNHZqhsD0iubdoF_1OJN-127" value="C3" style="text;strokeColor=none;fillColor=none;align=left;verticalAlign=middle;spacingLeft=4;spacingRight=4;overflow=hidden;points=[[0,0.5],[1,0.5]];portConstraint=eastwest;rotatable=0;whiteSpace=wrap;html=1;" parent="1" vertex="1">
          <mxGeometry x="595" y="1535" width="30" height="30" as="geometry" />
        </mxCell>
        <mxCell id="CNHZqhsD0iubdoF_1OJN-128" value="C4" style="text;strokeColor=none;fillColor=none;align=left;verticalAlign=middle;spacingLeft=4;spacingRight=4;overflow=hidden;points=[[0,0.5],[1,0.5]];portConstraint=eastwest;rotatable=0;whiteSpace=wrap;html=1;" parent="1" vertex="1">
          <mxGeometry x="595" y="1575" width="30" height="30" as="geometry" />
        </mxCell>
        <mxCell id="CNHZqhsD0iubdoF_1OJN-129" value="" style="ellipse;whiteSpace=wrap;html=1;fillColor=#949494;" parent="1" vertex="1">
          <mxGeometry x="570" y="1465" width="10" height="10" as="geometry" />
        </mxCell>
        <mxCell id="CNHZqhsD0iubdoF_1OJN-130" value="" style="ellipse;whiteSpace=wrap;html=1;fillColor=#949494;" parent="1" vertex="1">
          <mxGeometry x="570" y="1505" width="10" height="10" as="geometry" />
        </mxCell>
        <mxCell id="CNHZqhsD0iubdoF_1OJN-131" value="" style="ellipse;whiteSpace=wrap;html=1;fillColor=#949494;" parent="1" vertex="1">
          <mxGeometry x="570" y="1545" width="10" height="10" as="geometry" />
        </mxCell>
        <mxCell id="CNHZqhsD0iubdoF_1OJN-132" value="" style="ellipse;whiteSpace=wrap;html=1;fillColor=#949494;" parent="1" vertex="1">
          <mxGeometry x="570" y="1585" width="10" height="10" as="geometry" />
        </mxCell>
        <mxCell id="sE2-4NzA28ptPpq9RLtH-2" style="edgeStyle=orthogonalEdgeStyle;rounded=0;orthogonalLoop=1;jettySize=auto;html=1;exitX=0;exitY=0.5;exitDx=0;exitDy=0;endArrow=none;endFill=0;" edge="1" parent="1" source="sE2-4NzA28ptPpq9RLtH-1" target="CNHZqhsD0iubdoF_1OJN-109">
          <mxGeometry relative="1" as="geometry" />
        </mxCell>
        <mxCell id="sE2-4NzA28ptPpq9RLtH-4" value="1" style="edgeLabel;html=1;align=center;verticalAlign=middle;resizable=0;points=[];" vertex="1" connectable="0" parent="sE2-4NzA28ptPpq9RLtH-2">
          <mxGeometry x="0.8955" relative="1" as="geometry">
            <mxPoint x="-7" as="offset" />
          </mxGeometry>
        </mxCell>
        <mxCell id="sE2-4NzA28ptPpq9RLtH-3" style="edgeStyle=orthogonalEdgeStyle;rounded=0;orthogonalLoop=1;jettySize=auto;html=1;exitX=1;exitY=0.5;exitDx=0;exitDy=0;endArrow=none;endFill=0;" edge="1" parent="1" source="sE2-4NzA28ptPpq9RLtH-1" target="CNHZqhsD0iubdoF_1OJN-108">
          <mxGeometry relative="1" as="geometry" />
        </mxCell>
        <mxCell id="sE2-4NzA28ptPpq9RLtH-5" value="1" style="edgeLabel;html=1;align=center;verticalAlign=middle;resizable=0;points=[];" vertex="1" connectable="0" parent="sE2-4NzA28ptPpq9RLtH-3">
          <mxGeometry x="0.9216" relative="1" as="geometry">
            <mxPoint x="-7" y="3" as="offset" />
          </mxGeometry>
        </mxCell>
        <mxCell id="sE2-4NzA28ptPpq9RLtH-8" value="" style="edgeStyle=orthogonalEdgeStyle;rounded=0;orthogonalLoop=1;jettySize=auto;html=1;endArrow=none;endFill=0;" edge="1" parent="1" source="sE2-4NzA28ptPpq9RLtH-1" target="sE2-4NzA28ptPpq9RLtH-9">
          <mxGeometry relative="1" as="geometry">
            <mxPoint x="910.0000000000002" y="1539.9999999999998" as="targetPoint" />
          </mxGeometry>
        </mxCell>
        <mxCell id="sE2-4NzA28ptPpq9RLtH-1" value="Transferir" style="shape=rhombus;perimeter=rhombusPerimeter;whiteSpace=wrap;html=1;align=center;" vertex="1" parent="1">
          <mxGeometry x="850" y="1460" width="120" height="60" as="geometry" />
        </mxCell>
        <mxCell id="sE2-4NzA28ptPpq9RLtH-9" value="Data e Hora" style="ellipse;whiteSpace=wrap;html=1;align=center;" vertex="1" parent="1">
          <mxGeometry x="860" y="1540" width="100" height="40" as="geometry" />
        </mxCell>
        <mxCell id="sE2-4NzA28ptPpq9RLtH-10" value="Jogador" style="text;html=1;strokeColor=none;fillColor=none;align=center;verticalAlign=middle;whiteSpace=wrap;rounded=0;" vertex="1" parent="1">
          <mxGeometry x="56" y="1395" width="60" height="30" as="geometry" />
        </mxCell>
        <mxCell id="sE2-4NzA28ptPpq9RLtH-11" value="Transferir" style="text;html=1;strokeColor=none;fillColor=none;align=center;verticalAlign=middle;whiteSpace=wrap;rounded=0;" vertex="1" parent="1">
          <mxGeometry x="156" y="1395" width="60" height="30" as="geometry" />
        </mxCell>
        <mxCell id="sE2-4NzA28ptPpq9RLtH-12" value="Clube" style="text;html=1;strokeColor=none;fillColor=none;align=center;verticalAlign=middle;whiteSpace=wrap;rounded=0;" vertex="1" parent="1">
          <mxGeometry x="266" y="1395" width="60" height="30" as="geometry" />
        </mxCell>
        <mxCell id="sE2-4NzA28ptPpq9RLtH-13" value="J1" style="text;strokeColor=none;fillColor=none;align=left;verticalAlign=middle;spacingLeft=4;spacingRight=4;overflow=hidden;points=[[0,0.5],[1,0.5]];portConstraint=eastwest;rotatable=0;whiteSpace=wrap;html=1;" vertex="1" parent="1">
          <mxGeometry x="71" y="1455" width="30" height="30" as="geometry" />
        </mxCell>
        <mxCell id="sE2-4NzA28ptPpq9RLtH-14" value="J2" style="text;strokeColor=none;fillColor=none;align=left;verticalAlign=middle;spacingLeft=4;spacingRight=4;overflow=hidden;points=[[0,0.5],[1,0.5]];portConstraint=eastwest;rotatable=0;whiteSpace=wrap;html=1;" vertex="1" parent="1">
          <mxGeometry x="71" y="1495" width="30" height="30" as="geometry" />
        </mxCell>
        <mxCell id="sE2-4NzA28ptPpq9RLtH-15" value="J3" style="text;strokeColor=none;fillColor=none;align=left;verticalAlign=middle;spacingLeft=4;spacingRight=4;overflow=hidden;points=[[0,0.5],[1,0.5]];portConstraint=eastwest;rotatable=0;whiteSpace=wrap;html=1;" vertex="1" parent="1">
          <mxGeometry x="71" y="1535" width="30" height="30" as="geometry" />
        </mxCell>
        <mxCell id="sE2-4NzA28ptPpq9RLtH-16" value="J4" style="text;strokeColor=none;fillColor=none;align=left;verticalAlign=middle;spacingLeft=4;spacingRight=4;overflow=hidden;points=[[0,0.5],[1,0.5]];portConstraint=eastwest;rotatable=0;whiteSpace=wrap;html=1;" vertex="1" parent="1">
          <mxGeometry x="71" y="1575" width="30" height="30" as="geometry" />
        </mxCell>
        <mxCell id="sE2-4NzA28ptPpq9RLtH-17" style="rounded=0;orthogonalLoop=1;jettySize=auto;html=1;entryX=0;entryY=0.5;entryDx=0;entryDy=0;endArrow=none;endFill=0;" edge="1" parent="1" source="sE2-4NzA28ptPpq9RLtH-18" target="sE2-4NzA28ptPpq9RLtH-30">
          <mxGeometry relative="1" as="geometry" />
        </mxCell>
        <mxCell id="sE2-4NzA28ptPpq9RLtH-18" value="" style="ellipse;whiteSpace=wrap;html=1;fillColor=#949494;" vertex="1" parent="1">
          <mxGeometry x="106" y="1465" width="10" height="10" as="geometry" />
        </mxCell>
        <mxCell id="sE2-4NzA28ptPpq9RLtH-20" value="" style="ellipse;whiteSpace=wrap;html=1;fillColor=#949494;" vertex="1" parent="1">
          <mxGeometry x="106" y="1505" width="10" height="10" as="geometry" />
        </mxCell>
        <mxCell id="sE2-4NzA28ptPpq9RLtH-21" style="rounded=0;orthogonalLoop=1;jettySize=auto;html=1;entryX=0;entryY=0.5;entryDx=0;entryDy=0;endArrow=none;endFill=0;" edge="1" parent="1" source="sE2-4NzA28ptPpq9RLtH-22" target="sE2-4NzA28ptPpq9RLtH-31">
          <mxGeometry relative="1" as="geometry" />
        </mxCell>
        <mxCell id="sE2-4NzA28ptPpq9RLtH-22" value="" style="ellipse;whiteSpace=wrap;html=1;fillColor=#949494;" vertex="1" parent="1">
          <mxGeometry x="106" y="1545" width="10" height="10" as="geometry" />
        </mxCell>
        <mxCell id="sE2-4NzA28ptPpq9RLtH-23" style="rounded=0;orthogonalLoop=1;jettySize=auto;html=1;entryX=0;entryY=0.5;entryDx=0;entryDy=0;endArrow=none;endFill=0;" edge="1" parent="1" source="sE2-4NzA28ptPpq9RLtH-24" target="sE2-4NzA28ptPpq9RLtH-32">
          <mxGeometry relative="1" as="geometry" />
        </mxCell>
        <mxCell id="sE2-4NzA28ptPpq9RLtH-24" value="" style="ellipse;whiteSpace=wrap;html=1;fillColor=#949494;" vertex="1" parent="1">
          <mxGeometry x="106" y="1585" width="10" height="10" as="geometry" />
        </mxCell>
        <mxCell id="sE2-4NzA28ptPpq9RLtH-25" value="C1" style="text;strokeColor=none;fillColor=none;align=left;verticalAlign=middle;spacingLeft=4;spacingRight=4;overflow=hidden;points=[[0,0.5],[1,0.5]];portConstraint=eastwest;rotatable=0;whiteSpace=wrap;html=1;" vertex="1" parent="1">
          <mxGeometry x="281" y="1455" width="30" height="30" as="geometry" />
        </mxCell>
        <mxCell id="sE2-4NzA28ptPpq9RLtH-26" value="C2" style="text;strokeColor=none;fillColor=none;align=left;verticalAlign=middle;spacingLeft=4;spacingRight=4;overflow=hidden;points=[[0,0.5],[1,0.5]];portConstraint=eastwest;rotatable=0;whiteSpace=wrap;html=1;" vertex="1" parent="1">
          <mxGeometry x="281" y="1495" width="30" height="30" as="geometry" />
        </mxCell>
        <mxCell id="sE2-4NzA28ptPpq9RLtH-27" value="C3" style="text;strokeColor=none;fillColor=none;align=left;verticalAlign=middle;spacingLeft=4;spacingRight=4;overflow=hidden;points=[[0,0.5],[1,0.5]];portConstraint=eastwest;rotatable=0;whiteSpace=wrap;html=1;" vertex="1" parent="1">
          <mxGeometry x="281" y="1535" width="30" height="30" as="geometry" />
        </mxCell>
        <mxCell id="sE2-4NzA28ptPpq9RLtH-28" value="C4" style="text;strokeColor=none;fillColor=none;align=left;verticalAlign=middle;spacingLeft=4;spacingRight=4;overflow=hidden;points=[[0,0.5],[1,0.5]];portConstraint=eastwest;rotatable=0;whiteSpace=wrap;html=1;" vertex="1" parent="1">
          <mxGeometry x="281" y="1575" width="30" height="30" as="geometry" />
        </mxCell>
        <mxCell id="sE2-4NzA28ptPpq9RLtH-29" value="" style="ellipse;whiteSpace=wrap;html=1;fillColor=#949494;" vertex="1" parent="1">
          <mxGeometry x="256" y="1465" width="10" height="10" as="geometry" />
        </mxCell>
        <mxCell id="sE2-4NzA28ptPpq9RLtH-30" value="" style="ellipse;whiteSpace=wrap;html=1;fillColor=#949494;" vertex="1" parent="1">
          <mxGeometry x="256" y="1505" width="10" height="10" as="geometry" />
        </mxCell>
        <mxCell id="sE2-4NzA28ptPpq9RLtH-31" value="" style="ellipse;whiteSpace=wrap;html=1;fillColor=#949494;" vertex="1" parent="1">
          <mxGeometry x="256" y="1545" width="10" height="10" as="geometry" />
        </mxCell>
        <mxCell id="sE2-4NzA28ptPpq9RLtH-32" value="" style="ellipse;whiteSpace=wrap;html=1;fillColor=#949494;" vertex="1" parent="1">
          <mxGeometry x="256" y="1585" width="10" height="10" as="geometry" />
        </mxCell>
        <mxCell id="sE2-4NzA28ptPpq9RLtH-33" value="" style="endArrow=none;html=1;rounded=0;exitX=0.899;exitY=-0.023;exitDx=0;exitDy=0;exitPerimeter=0;entryX=0.899;entryY=0.985;entryDx=0;entryDy=0;entryPerimeter=0;" edge="1" parent="1" source="CNHZqhsD0iubdoF_1OJN-109" target="CNHZqhsD0iubdoF_1OJN-109">
          <mxGeometry relative="1" as="geometry">
            <mxPoint x="760" y="1390" as="sourcePoint" />
            <mxPoint x="990" y="1350" as="targetPoint" />
          </mxGeometry>
        </mxCell>
      </root>
    </mxGraphModel>
  </diagram>
</mxfile>
